<svg xmlns="http://www.w3.org/2000/svg" version="1.1" xmlns:xlink="http://www.w3.org/1999/xlink" xmlns:svgjs="http://svgjs.com/svgjs" width="1440" height="560" preserveAspectRatio="none" viewBox="0 0 1440 560"><g mask="url(&quot;#SvgjsMask1024&quot;)" fill="none"><rect width="1440" height="560" x="0" y="0" fill="url(#SvgjsLinearGradient1025)"></rect><path d="M1440 0L1404.18 0L1440 120.75z" fill="rgba(255, 255, 255, .1)"></path><path d="M1404.18 0L1440 120.75L1440 193.99L749.35 0z" fill="rgba(255, 255, 255, .075)"></path><path d="M749.3499999999999 0L1440 193.99L1440 322.93L646.4799999999999 0z" fill="rgba(255, 255, 255, .05)"></path><path d="M646.4799999999999 0L1440 322.93L1440 461.53L584.68 0z" fill="rgba(255, 255, 255, .025)"></path><path d="M0 560L364.55 560L0 285.02z" fill="rgba(0, 0, 0, .1)"></path><path d="M0 285.02L364.55 560L549.1700000000001 560L0 193.33999999999997z" fill="rgba(0, 0, 0, .075)"></path><path d="M0 193.33999999999997L549.1700000000001 560L549.6200000000001 560L0 174.06999999999996z" fill="rgba(0, 0, 0, .05)"></path><path d="M0 174.07L549.6200000000001 560L599.2900000000001 560L0 105.58z" fill="rgba(0, 0, 0, .025)"></path></g><defs><mask id="SvgjsMask1024"><rect width="1440" height="560" fill="#ffffff"></rect></mask><linearGradient x1="0%" y1="50%" x2="100%" y2="50%" gradientUnits="userSpaceOnUse" id="SvgjsLinearGradient1025"><stop stop-color="#0e2a47" offset="0"></stop><stop stop-color="rgba(63, 81, 181, 1)" offset="1"></stop></linearGradient></defs></svg>